# xmcd
#
# Track frame offsets: 
#        150
#        23083
#        41886
#        73015
#        92695
#        115498
#        146569
#        175015
#        189322
#        212411
#
# Disc length: 3134 seconds
#
# Revision: 1
# Processed by: cddbd v1.5.2PL0 Copyright (c) Steve Scherf et al.
# Submitted via: ExactAudioCopy v0.95b4
#
DISCID=880c3c0a
DTITLE=Michael Diamond - Atlantis Rising
DYEAR=2005
DGENRE=New Age
TTITLE0=Merlin's Garden
TTITLE1=Molecules of Emotion
TTITLE2=Suspended Animation
TTITLE3=Sun Dance
TTITLE4=Atlantis Rising
TTITLE5=Shamballa
TTITLE6=Deep Blue
TTITLE7=Dream Flight
TTITLE8=Echoes in Amethyst
TTITLE9=The Hero's Journey
EXTD=YEAR: 2005
EXTT0=
EXTT1=
EXTT2=
EXTT3=
EXTT4=
EXTT5=
EXTT6=
EXTT7=
EXTT8=
EXTT9=
PLAYORDER=
